{
  "accessors": [
    {
      "bufferView": 2,
      "componentType": 5126,
      "count": 2535,
      "max": [
        0.9094489812850952,
        0.48247700929641724,
        1.470062017440796
      ],
      "min": [
        -0.9094489812850952,
        -0.48247700929641724,
        -1.4287110567092896
      ],
      "type": "VEC3"
    },
    {
      "bufferView": 2,
      "byteOffset": 30420,
      "componentType": 5126,
      "count": 2535,
      "max": [
        1.0,
        1.0,
        1.0
      ],
      "min": [
        -1.0,
        -1.0,
        -1.0
      ],
      "type": "VEC3"
    },
    {
      "bufferView": 1,
      "componentType": 5126,
      "count": 2535,
      "max": [
        1.0018219947814941,
        1.0
      ],
      "min": [
        0.0018210000125691295,
        -0.0
      ],
      "type": "VEC2"
    },
    {
      "bufferView": 0,
      "componentType": 5125,
      "count": 13248,
      "type": "SCALAR"
    }
  ],
  "asset": {
    "extras": {
      "author": "Render at Night (https://sketchfab.com/Render_at_Night)",
      "license": "CC-BY-4.0 (http://creativecommons.org/licenses/by/4.0/)",
      "source": "https://sketchfab.com/3d-models/sunflower-seed-bf3bae75c18a457195ee602511fb2745",
      "title": "Sunflower Seed"
    },
    "generator": "Sketchfab-12.68.0",
    "version": "2.0"
  },
  "bufferViews": [
    {
      "buffer": 0,
      "byteLength": 52992,
      "name": "floatBufferViews",
      "target": 34963
    },
    {
      "buffer": 0,
      "byteLength": 20280,
      "byteOffset": 52992,
      "byteStride": 8,
      "name": "floatBufferViews",
      "target": 34962
    },
    {
      "buffer": 0,
      "byteLength": 60840,
      "byteOffset": 73272,
      "byteStride": 12,
      "name": "floatBufferViews",
      "target": 34962
    }
  ],
  "buffers": [
    {
      "byteLength": 134112,
      "uri": "seeds.bin"
    }
  ],
  "images": [
    {
      "uri": "textures/Sunflower_Seed_TEX_baseColor.png"
    }
  ],
  "materials": [
    {
      "doubleSided": true,
      "name": "Sunflower_Seed_TEX",
      "pbrMetallicRoughness": {
        "baseColorTexture": {
          "index": 0
        },
        "metallicFactor": 0.0,
        "roughnessFactor": 0.8108055163114133
      }
    }
  ],
  "meshes": [
    {
      "name": "Object_0",
      "primitives": [
        {
          "attributes": {
            "NORMAL": 1,
            "POSITION": 0,
            "TEXCOORD_0": 2
          },
          "indices": 3,
          "material": 0,
          "mode": 4
        }
      ]
    }
  ],
  "nodes": [
    {
      "children": [
        1
      ],
      "matrix": [
        1.0,
        0.0,
        0.0,
        0.0,
        0.0,
        2.220446049250313e-16,
        -1.0,
        0.0,
        0.0,
        1.0,
        2.220446049250313e-16,
        0.0,
        0.0,
        0.0,
        0.0,
        1.0
      ],
      "name": "Sketchfab_model"
    },
    {
      "children": [
        2
      ],
      "name": "Sunflower_Seed_High_Poly.obj.cleaner.materialmerger.gles"
    },
    {
      "mesh": 0,
      "name": "Object_2"
    }
  ],
  "samplers": [
    {
      "magFilter": 9729,
      "minFilter": 9987,
      "wrapS": 10497,
      "wrapT": 10497
    }
  ],
  "scene": 0,
  "scenes": [
    {
      "name": "Sketchfab_Scene",
      "nodes": [
        0
      ]
    }
  ],
  "textures": [
    {
      "sampler": 0,
      "source": 0
    }
  ]
}
