{"accessors":[{"bufferView":3,"componentType":5126,"count":304,"max":[6.77100133895874,7.692430019378662,0.5],"min":[-6.77100133895874,4.192430019378662,-0.5],"type":"VEC3"},{"bufferView":3,"byteOffset":3648,"componentType":5126,"count":304,"max":[1,1,1],"min":[-1,-1,-1],"type":"VEC3"},{"bufferView":4,"componentType":5126,"count":304,"max":[0.981354832649231,0.9999963045120239,0.9506257176399231,1],"min":[-0.9998178482055664,-0.999927818775177,-0.8821672797203064,1],"type":"VEC4"},{"bufferView":2,"componentType":5126,"count":304,"max":[0.9209871888160706,0.848815381526947],"min":[0.14504003524780273,0.1103326827287674],"type":"VEC2"},{"bufferView":1,"componentType":5125,"count":936,"max":[303],"min":[0],"type":"SCALAR"},{"bufferView":3,"byteOffset":7296,"componentType":5126,"count":435,"max":[2.855971097946167,8.924418449401855,2.6009621620178223],"min":[-2.8559718132019043,3.2124760150909424,-2.8559725284576416],"type":"VEC3"},{"bufferView":3,"byteOffset":12516,"componentType":5126,"count":435,"max":[1,1,0.9847375750541687],"min":[-1,-1,-1],"type":"VEC3"},{"bufferView":4,"byteOffset":4864,"componentType":5126,"count":435,"max":[0.9999985694885254,0.5199829339981079,0.9996440410614014,1],"min":[-0.9999902844429016,-0.5348600745201111,-0.9983089566230774,1],"type":"VEC4"},{"bufferView":2,"byteOffset":2432,"componentType":5126,"count":435,"max":[0.7005329728126526,0.5580316185951233],"min":[0.2975333333015442,0.27553772926330566],"type":"VEC2"},{"bufferView":1,"byteOffset":3744,"componentType":5125,"count":2220,"max":[434],"min":[0],"type":"SCALAR"},{"bufferView":3,"byteOffset":17736,"componentType":5126,"count":439,"max":[1,1,1.0000001192092896],"min":[-1.000000238418579,-1,-1.0000004768371582],"type":"VEC3"},{"bufferView":3,"byteOffset":23004,"componentType":5126,"count":439,"max":[1,1,1],"min":[-1,-1,-1],"type":"VEC3"},{"bufferView":4,"byteOffset":11824,"componentType":5126,"count":439,"max":[1,0.07869060337543488,1,1],"min":[-1,-0.07869064062833786,-1,1],"type":"VEC4"},{"bufferView":2,"byteOffset":5912,"componentType":5126,"count":439,"max":[0.5829390287399292,0.25211232900619507],"min":[0.4042574167251587,0.07343071699142456],"type":"VEC2"},{"bufferView":1,"byteOffset":12624,"componentType":5125,"count":2280,"max":[438],"min":[0],"type":"SCALAR"},{"bufferView":3,"byteOffset":28272,"componentType":5126,"count":2226,"max":[1.297445297241211,1.3974108695983887,1.277778148651123],"min":[-1.297445297241211,-1.3974108695983887,-1.277778148651123],"type":"VEC3"},{"bufferView":3,"byteOffset":54984,"componentType":5126,"count":2226,"max":[1,1,1],"min":[-1,-1,-1],"type":"VEC3"},{"bufferView":4,"byteOffset":18848,"componentType":5126,"count":2226,"max":[0.9999508261680603,0.9990977644920349,0.9999920725822449,1],"min":[-0.9998748898506165,-0.998872697353363,-0.9979282021522522,-1],"type":"VEC4"},{"bufferView":2,"byteOffset":9424,"componentType":5126,"count":2226,"max":[0.9841606616973877,0.9715430736541748],"min":[0.40966320037841797,0.6975125670433044],"type":"VEC2"},{"bufferView":1,"byteOffset":21744,"componentType":5125,"count":11520,"max":[2225],"min":[0],"type":"SCALAR"},{"bufferView":3,"byteOffset":81696,"componentType":5126,"count":4452,"max":[6.047279357910156,1.296560287475586,1.9254629611968994],"min":[-2.0541346073150635,-2.6589465141296387,-0.8372137546539307],"type":"VEC3"},{"bufferView":3,"byteOffset":135120,"componentType":5126,"count":4452,"max":[0.9999396800994873,0.9984015822410583,0.9876084923744202],"min":[-0.9989710450172424,-0.9997774362564087,-0.9867279529571533],"type":"VEC3"},{"bufferView":4,"byteOffset":54464,"componentType":5126,"count":4452,"max":[0.998711884021759,0.999780535697937,0.9992837905883789,1],"min":[-0.9925163388252258,-0.9966989755630493,-0.9972044825553894,-1],"type":"VEC4"},{"bufferView":2,"byteOffset":27232,"componentType":5126,"count":4452,"max":[0.9804900288581848,0.5951097011566162],"min":[0.024456273764371872,0.06026366353034973],"type":"VEC2"},{"bufferView":1,"byteOffset":67824,"componentType":5125,"count":23040,"max":[4451],"min":[0],"type":"SCALAR"},{"bufferView":5,"componentType":5126,"count":4,"max":[1,0,0,0,0,1,0,0,0,1,1,0,3,0,6,1],"min":[1,0,0,0,0,2.832769343193999e-16,-1,0,0,0,2.832769343193999e-16,0,-3,-6,0,1],"type":"MAT4"},{"bufferView":0,"componentType":5123,"count":304,"max":[3,2,2,2],"min":[2,2,2,2],"type":"VEC4"},{"bufferView":4,"byteOffset":125696,"componentType":5126,"count":304,"max":[1,0,0,0],"min":[1,0,0,0],"type":"VEC4"},{"bufferView":0,"byteOffset":2432,"componentType":5123,"count":435,"max":[1,1,1,1],"min":[1,1,1,1],"type":"VEC4"},{"bufferView":4,"byteOffset":130560,"componentType":5126,"count":435,"max":[1,0,0,0],"min":[1,0,0,0],"type":"VEC4"},{"bufferView":6,"componentType":5126,"count":258,"max":[10],"min":[0.0416666679084301],"type":"SCALAR"},{"bufferView":7,"componentType":5126,"count":258,"max":[7.769204616546631,12.23095703125,1.574657917022705],"min":[-8.391753196716309,1.3936433792114258,1.574657917022705],"type":"VEC3"},{"bufferView":6,"byteOffset":1032,"componentType":5126,"count":245,"max":[10],"min":[0.0416666679084301],"type":"SCALAR"},{"bufferView":8,"componentType":5126,"count":245,"max":[0.750695526599884,0.1405085176229477,0.11918520927429199,0.788152277469635],"min":[0.5971072912216187,-0.10189154744148254,-0.13332097232341766,0.6417703628540039],"type":"VEC4"},{"bufferView":6,"byteOffset":2012,"componentType":5126,"count":258,"max":[10],"min":[0.0416666679084301],"type":"SCALAR"},{"bufferView":7,"byteOffset":3096,"componentType":5126,"count":258,"max":[7.769204616546631,16.215744018554688,-2.384185791015625e-7],"min":[-8.391753196716309,5.378431797027588,-2.384185791015625e-7],"type":"VEC3"},{"bufferView":6,"byteOffset":3044,"componentType":5126,"count":258,"max":[10],"min":[0.0416666679084301],"type":"SCALAR"},{"bufferView":7,"byteOffset":6192,"componentType":5126,"count":258,"max":[6.59175968170166,10.504326820373535,2.4956674575805664],"min":[-9.569198608398438,-0.3329862654209137,2.4956674575805664],"type":"VEC3"},{"bufferView":6,"byteOffset":4076,"componentType":5126,"count":257,"max":[10],"min":[0.0416666679084301],"type":"SCALAR"},{"bufferView":8,"byteOffset":3920,"componentType":5126,"count":257,"max":[0.9397737979888916,0,0,0.9397737979888916],"min":[-0.8589599132537842,0,0,-0.4927395284175873],"type":"VEC4"},{"bufferView":6,"byteOffset":5104,"componentType":5126,"count":257,"max":[10],"min":[0.0416666679084301],"type":"SCALAR"},{"bufferView":8,"byteOffset":8032,"componentType":5126,"count":257,"max":[0.4228333830833435,0,0,1],"min":[-0.4228333532810211,0,0,0.9062074422836304],"type":"VEC4"},{"bufferView":6,"byteOffset":6132,"componentType":5126,"count":258,"max":[10],"min":[0.0416666679084301],"type":"SCALAR"},{"bufferView":7,"byteOffset":9288,"componentType":5126,"count":258,"max":[7.769204616546631,12.243526458740234,0],"min":[-8.391753196716309,1.406213402748108,0],"type":"VEC3"},{"bufferView":6,"byteOffset":7164,"componentType":5126,"count":167,"max":[10],"min":[0.0416666679084301],"type":"SCALAR"},{"bufferView":8,"byteOffset":12144,"componentType":5126,"count":167,"max":[0.4226182699203491,0,0,1],"min":[-0.4226182699203491,0,0,0.9063078165054321],"type":"VEC4"},{"bufferView":6,"byteOffset":7832,"componentType":5126,"count":167,"max":[10],"min":[0.0416666679084301],"type":"SCALAR"},{"bufferView":8,"byteOffset":14816,"componentType":5126,"count":167,"max":[0.4226182699203491,0,0,1],"min":[-0.4226182699203491,0,0,0.9063078165054321],"type":"VEC4"},{"bufferView":6,"byteOffset":8500,"componentType":5126,"count":140,"max":[10],"min":[0.0416666679084301],"type":"SCALAR"},{"bufferView":7,"byteOffset":12384,"componentType":5126,"count":140,"max":[2.581462860107422,1.8419075012207031,0],"min":[-2.0465738773345947,-1.037976861000061,0],"type":"VEC3"},{"bufferView":6,"byteOffset":9060,"componentType":5126,"count":156,"max":[10],"min":[0.0416666679084301],"type":"SCALAR"},{"bufferView":7,"byteOffset":14064,"componentType":5126,"count":156,"max":[7.765834808349609,6.241267681121826,0],"min":[-8.388383865356445,-4.591526985168457,0],"type":"VEC3"}],"animations":[{"channels":[{"sampler":0,"target":{"node":16,"path":"translation"}},{"sampler":1,"target":{"node":16,"path":"rotation"}},{"sampler":2,"target":{"node":18,"path":"translation"}},{"sampler":3,"target":{"node":20,"path":"translation"}},{"sampler":4,"target":{"node":11,"path":"rotation"}},{"sampler":5,"target":{"node":12,"path":"rotation"}},{"sampler":6,"target":{"node":10,"path":"translation"}},{"sampler":7,"target":{"node":33,"path":"rotation"}},{"sampler":8,"target":{"node":34,"path":"rotation"}},{"sampler":9,"target":{"node":35,"path":"translation"}},{"sampler":10,"target":{"node":32,"path":"translation"}}],"name":"Take 001","samplers":[{"input":30,"interpolation":"LINEAR","output":31},{"input":32,"interpolation":"LINEAR","output":33},{"input":34,"interpolation":"LINEAR","output":35},{"input":36,"interpolation":"LINEAR","output":37},{"input":38,"interpolation":"LINEAR","output":39},{"input":40,"interpolation":"LINEAR","output":41},{"input":42,"interpolation":"LINEAR","output":43},{"input":44,"interpolation":"LINEAR","output":45},{"input":46,"interpolation":"LINEAR","output":47},{"input":48,"interpolation":"LINEAR","output":49},{"input":50,"interpolation":"LINEAR","output":51}]}],"asset":{"extras":{"author":"JoseDR (https://sketchfab.com/JoseDR)","license":"CC-BY-4.0 (http://creativecommons.org/licenses/by/4.0/)","source":"https://sketchfab.com/3d-models/shiny-magnemite-f9cfa3a79455410f9cd7e41512a8b921","title":"Shiny Magnemite"},"generator":"Sketchfab-4.90.0","version":"2.0"},"bufferViews":[{"buffer":0,"byteLength":5912,"byteOffset":0,"byteStride":8,"name":"shortBufferViews","target":34962},{"buffer":0,"byteLength":159984,"byteOffset":5912,"name":"floatBufferViews","target":34963},{"buffer":0,"byteLength":62848,"byteOffset":165896,"byteStride":8,"name":"floatBufferViews","target":34962},{"buffer":0,"byteLength":188544,"byteOffset":228744,"byteStride":12,"name":"floatBufferViews","target":34962},{"buffer":0,"byteLength":137520,"byteOffset":417288,"byteStride":16,"name":"floatBufferViews","target":34962},{"buffer":0,"byteLength":256,"byteOffset":554808,"byteStride":64,"name":"floatBufferViews"},{"buffer":0,"byteLength":9684,"byteOffset":555064,"name":"floatBufferViews"},{"buffer":0,"byteLength":15936,"byteOffset":564748,"byteStride":12,"name":"floatBufferViews"},{"buffer":0,"byteLength":17488,"byteOffset":580684,"byteStride":16,"name":"floatBufferViews"}],"buffers":[{"byteLength":598172,"uri":"data:application/octet-stream;base64,"}],"images":[{"uri":"data:application/octet-stream;base64,"}],"materials":[{"doubleSided":true,"emissiveFactor":[0,0,0],"name":"blinn2","pbrMetallicRoughness":{"baseColorFactor":[1,1,1,1],"baseColorTexture":{"index":0,"texCoord":0},"metallicFactor":0.2768125057,"roughnessFactor":0.5669374943000001}}],"meshes":[{"name":"imanes_blinn2_0","primitives":[{"attributes":{"JOINTS_0":26,"NORMAL":1,"POSITION":0,"TANGENT":2,"TEXCOORD_0":3,"WEIGHTS_0":27},"indices":4,"material":0,"mode":4}]},{"name":"cuerpo_blinn2_0","primitives":[{"attributes":{"JOINTS_0":28,"NORMAL":6,"POSITION":5,"TANGENT":7,"TEXCOORD_0":8,"WEIGHTS_0":29},"indices":9,"material":0,"mode":4}]},{"name":"ojo_blinn2_0","primitives":[{"attributes":{"NORMAL":11,"POSITION":10,"TANGENT":12,"TEXCOORD_0":13},"indices":14,"material":0,"mode":4}]},{"name":"torniglio_blinn2_0","primitives":[{"attributes":{"NORMAL":16,"POSITION":15,"TANGENT":17,"TEXCOORD_0":18},"indices":19,"material":0,"mode":4}]},{"name":"torniglio_team_blinn2_0","primitives":[{"attributes":{"NORMAL":21,"POSITION":20,"TANGENT":22,"TEXCOORD_0":23},"indices":24,"material":0,"mode":4}]}],"nodes":[{"children":[1],"name":"RootNode (gltf orientation matrix)","rotation":[-0.7071067811865475,0,0,0.7071067811865476]},{"children":[2],"name":"RootNode (model correction matrix)"},{"children":[3],"matrix":[1,0,0,0,0,0,1,0,0,-1,0,0,0,0,0,1],"name":"magnemite animado 2.fbx"},{"children":[4],"name":""},{"children":[5],"name":"RootNode"},{"children":[6,8,9,7,13,14,15,23,26,29,32],"name":""},{"children":[10],"name":"_rootJoint"},{"matrix":[1,0,0,0,0,1,0,0,0,0,1,0,3.3678462234697446,5.942430089930457,6.162975822039155e-33,1],"name":""},{"mesh":0,"name":"","skin":0},{"mesh":1,"name":"","skin":0},{"children":[11,12],"name":"root_00","rotation":[0.7071068286895752,0,0,0.7071068286895752],"translation":[0,6,0]},{"name":"iman_l_01","rotation":[-0.7071068286895752,0,0,0.7071068286895752],"translation":[3,0,0]},{"name":"iman_r_02","translation":[-3,0,0]},{"name":"imagePlane1","scale":[2.4016404151916504,2.4016404151916504,2.4016404151916504],"translation":[7.941534996032715,7.098028182983398,-13.97634220123291]},{"name":"imagePlane2","rotation":[0,0.7071068286895752,0,0.7071068286895752],"scale":[2.4016404151916504,2.4016404151916504,2.4016404151916504],"translation":[-14.280845642089844,6.838064670562744,15.431127548217773]},{"children":[16,18,20,22],"name":"cuerpo"},{"children":[17],"name":"ojo","rotation":[0.7071068286895752,1.7791760297465088e-16,1.7430503180680852e-14,0.7071068286895752],"scale":[1.5072540044784546,1.4791148900985718,1.5072540044784546],"translation":[0,5.987430095672607,1.574657917022705]},{"mesh":2,"name":"ojo_blinn2_0"},{"children":[19],"name":"torniglio","translation":[-1.7881393432617188e-7,9.97221851348877,-2.384185791015625e-7]},{"mesh":3,"name":"torniglio_blinn2_0"},{"children":[21],"name":"torniglio_team","rotation":[0.8366996049880981,-0.0778207778930664,0.07888264209032059,0.5363349914550781],"scale":[0.5697518587112427,0.5697518587112427,0.5697518587112427],"translation":[-1.1774451732635498,4.260800361633301,2.4956676959991455]},{"mesh":4,"name":"torniglio_team_blinn2_0"},{"name":"imanes","translation":[3.3678462505340576,5.942430019378662,0]},{"children":[24],"name":"directionalLight1","rotation":[0.6130374670028687,-0.23035401105880737,0.19328996539115906,0.7305895686149597]},{"children":[25],"matrix":[1,0,0,0,0,2.220446049250313e-16,1,0,0,-1,2.220446049250313e-16,0,0,0,0,1],"name":""},{"name":""},{"children":[27],"name":"directionalLight2","rotation":[-0.326505571603775,0.6272113919258118,-0.6272113919258118,-0.326505571603775]},{"children":[28],"matrix":[1,0,0,0,0,2.220446049250313e-16,1,0,0,-1,2.220446049250313e-16,0,0,0,0,1],"name":""},{"name":""},{"children":[30],"name":"directionalLight3","rotation":[-0.35371994972229004,-0.5701595544815063,0.6794897317886353,-0.296806275844574]},{"children":[31],"matrix":[1,0,0,0,0,2.220446049250313e-16,1,0,0,-1,2.220446049250313e-16,0,0,0,0,1],"name":""},{"name":""},{"children":[33,34,35],"name":"ctrl_supermover"},{"name":"ctrl_iman_l","translation":[3,6,4.435769557952881]},{"name":"ctrl_iman_r","translation":[-3,6,4.435769557952881]},{"name":"ctrl_aim"}],"samplers":[{"magFilter":9729,"minFilter":9987,"wrapS":10497,"wrapT":10497}],"scene":0,"scenes":[{"name":"OSG_Scene","nodes":[0]}],"skins":[{"inverseBindMatrices":25,"joints":[6,10,11,12],"skeleton":6}],"textures":[{"sampler":0,"source":0}]}